<mxfile host="app.diagrams.net" modified="2020-11-03T03:02:48.101Z" agent="5.0 (Windows NT 10.0; Win64; x64) AppleWebKit/537.36 (KHTML, like Gecko) Chrome/86.0.4240.111 Safari/537.36" etag="RMbdwsxSB82Yv1W9Gq-2" version="13.8.8" type="github">
  <diagram name="Page-1" id="19d8dcba-68ad-dc05-1034-9cf7b2a963f6">
    <mxGraphModel dx="972" dy="416" grid="0" gridSize="10" guides="0" tooltips="1" connect="1" arrows="0" fold="1" page="1" pageScale="1" pageWidth="413" pageHeight="583" background="#ffffff" math="0" shadow="0">
      <root>
        <mxCell id="0" />
        <mxCell id="1" parent="0" />
        <mxCell id="euBuzAmvhNaSO7vLQI_B-53" value="" style="group" parent="1" vertex="1" connectable="0">
          <mxGeometry x="18" y="27" width="380" height="349" as="geometry" />
        </mxCell>
        <mxCell id="euBuzAmvhNaSO7vLQI_B-51" value="" style="group" parent="euBuzAmvhNaSO7vLQI_B-53" vertex="1" connectable="0">
          <mxGeometry y="18" width="380" height="331" as="geometry" />
        </mxCell>
        <mxCell id="euBuzAmvhNaSO7vLQI_B-50" value="" style="group" parent="euBuzAmvhNaSO7vLQI_B-51" vertex="1" connectable="0">
          <mxGeometry width="380" height="331" as="geometry" />
        </mxCell>
        <mxCell id="euBuzAmvhNaSO7vLQI_B-49" value="" style="group" parent="euBuzAmvhNaSO7vLQI_B-50" vertex="1" connectable="0">
          <mxGeometry width="380" height="331" as="geometry" />
        </mxCell>
        <mxCell id="euBuzAmvhNaSO7vLQI_B-43" value="" style="group" parent="euBuzAmvhNaSO7vLQI_B-49" vertex="1" connectable="0">
          <mxGeometry width="380" height="331" as="geometry" />
        </mxCell>
        <mxCell id="euBuzAmvhNaSO7vLQI_B-1" value="&lt;font style=&quot;font-size: 15px&quot;&gt;中央监控平台&lt;/font&gt;" style="rounded=0;whiteSpace=wrap;html=1;" parent="euBuzAmvhNaSO7vLQI_B-43" vertex="1">
          <mxGeometry x="90.44866586733767" y="12.420262664165103" width="201.84806531293535" height="37.26078799249531" as="geometry" />
        </mxCell>
        <mxCell id="euBuzAmvhNaSO7vLQI_B-28" style="edgeStyle=orthogonalEdgeStyle;rounded=0;orthogonalLoop=1;jettySize=auto;html=1;exitX=0.5;exitY=0;exitDx=0;exitDy=0;endArrow=none;endFill=0;" parent="euBuzAmvhNaSO7vLQI_B-43" source="euBuzAmvhNaSO7vLQI_B-2" target="euBuzAmvhNaSO7vLQI_B-1" edge="1">
          <mxGeometry relative="1" as="geometry" />
        </mxCell>
        <mxCell id="euBuzAmvhNaSO7vLQI_B-2" value="&lt;font style=&quot;font-size: 15px&quot;&gt;用户中心模块&lt;/font&gt;" style="rounded=0;whiteSpace=wrap;html=1;" parent="euBuzAmvhNaSO7vLQI_B-43" vertex="1">
          <mxGeometry x="19" y="97.5" width="70" height="37.26" as="geometry" />
        </mxCell>
        <mxCell id="euBuzAmvhNaSO7vLQI_B-29" style="edgeStyle=orthogonalEdgeStyle;rounded=0;orthogonalLoop=1;jettySize=auto;html=1;exitX=0.5;exitY=0;exitDx=0;exitDy=0;endArrow=none;endFill=0;" parent="euBuzAmvhNaSO7vLQI_B-43" source="euBuzAmvhNaSO7vLQI_B-6" edge="1">
          <mxGeometry relative="1" as="geometry">
            <mxPoint x="190.8251902092133" y="49.68105065666041" as="targetPoint" />
          </mxGeometry>
        </mxCell>
        <mxCell id="euBuzAmvhNaSO7vLQI_B-6" value="&lt;font style=&quot;font-size: 15px&quot;&gt;设备管理模块&lt;/font&gt;" style="rounded=0;whiteSpace=wrap;html=1;" parent="euBuzAmvhNaSO7vLQI_B-43" vertex="1">
          <mxGeometry x="109" y="97.5" width="68" height="37.26" as="geometry" />
        </mxCell>
        <mxCell id="euBuzAmvhNaSO7vLQI_B-30" style="edgeStyle=orthogonalEdgeStyle;rounded=0;orthogonalLoop=1;jettySize=auto;html=1;exitX=0.5;exitY=0;exitDx=0;exitDy=0;endArrow=none;endFill=0;" parent="euBuzAmvhNaSO7vLQI_B-43" source="euBuzAmvhNaSO7vLQI_B-7" edge="1">
          <mxGeometry relative="1" as="geometry">
            <mxPoint x="190.8251902092133" y="49.68105065666041" as="targetPoint" />
          </mxGeometry>
        </mxCell>
        <mxCell id="tPV664_OcNk1uNrXSqDA-2" style="edgeStyle=orthogonalEdgeStyle;rounded=0;orthogonalLoop=1;jettySize=auto;html=1;exitX=0.5;exitY=1;exitDx=0;exitDy=0;endArrow=none;endFill=0;" edge="1" parent="euBuzAmvhNaSO7vLQI_B-43" source="euBuzAmvhNaSO7vLQI_B-7" target="tPV664_OcNk1uNrXSqDA-1">
          <mxGeometry relative="1" as="geometry" />
        </mxCell>
        <mxCell id="euBuzAmvhNaSO7vLQI_B-7" value="&lt;font style=&quot;font-size: 15px&quot;&gt;设备加固模块&lt;/font&gt;" style="rounded=0;whiteSpace=wrap;html=1;" parent="euBuzAmvhNaSO7vLQI_B-43" vertex="1">
          <mxGeometry x="215" y="97.5" width="68" height="37.26" as="geometry" />
        </mxCell>
        <mxCell id="euBuzAmvhNaSO7vLQI_B-8" value="&lt;font style=&quot;font-size: 15px&quot;&gt;大屏展示模块&lt;/font&gt;" style="rounded=0;whiteSpace=wrap;html=1;" parent="euBuzAmvhNaSO7vLQI_B-43" vertex="1">
          <mxGeometry x="304" y="97.5" width="69" height="37.26" as="geometry" />
        </mxCell>
        <mxCell id="euBuzAmvhNaSO7vLQI_B-26" style="edgeStyle=orthogonalEdgeStyle;rounded=0;orthogonalLoop=1;jettySize=auto;html=1;exitX=0.5;exitY=1;exitDx=0;exitDy=0;entryX=0.5;entryY=0;entryDx=0;entryDy=0;endArrow=none;endFill=0;" parent="euBuzAmvhNaSO7vLQI_B-43" source="euBuzAmvhNaSO7vLQI_B-1" target="euBuzAmvhNaSO7vLQI_B-8" edge="1">
          <mxGeometry relative="1" as="geometry">
            <Array as="points">
              <mxPoint x="191.1901957522747" y="73.90056285178237" />
              <mxPoint x="346.68255709641653" y="73.90056285178237" />
            </Array>
          </mxGeometry>
        </mxCell>
        <mxCell id="euBuzAmvhNaSO7vLQI_B-31" style="edgeStyle=orthogonalEdgeStyle;rounded=0;orthogonalLoop=1;jettySize=auto;html=1;exitX=0.5;exitY=0;exitDx=0;exitDy=0;entryX=0.5;entryY=1;entryDx=0;entryDy=0;endArrow=none;endFill=0;" parent="euBuzAmvhNaSO7vLQI_B-43" source="euBuzAmvhNaSO7vLQI_B-9" target="euBuzAmvhNaSO7vLQI_B-2" edge="1">
          <mxGeometry relative="1" as="geometry" />
        </mxCell>
        <mxCell id="euBuzAmvhNaSO7vLQI_B-9" value="&lt;span style=&quot;font-size: 15px&quot;&gt;组&lt;br&gt;&lt;br&gt;管&lt;br&gt;&lt;br&gt;理&lt;br&gt;&lt;/span&gt;" style="rounded=0;whiteSpace=wrap;html=1;" parent="euBuzAmvhNaSO7vLQI_B-43" vertex="1">
          <mxGeometry x="7.592407592407592" y="190.65103189493436" width="17.88527161000693" height="127.92870544090057" as="geometry" />
        </mxCell>
        <mxCell id="euBuzAmvhNaSO7vLQI_B-32" style="edgeStyle=orthogonalEdgeStyle;rounded=0;orthogonalLoop=1;jettySize=auto;html=1;exitX=0.5;exitY=0;exitDx=0;exitDy=0;endArrow=none;endFill=0;" parent="euBuzAmvhNaSO7vLQI_B-43" source="euBuzAmvhNaSO7vLQI_B-10" edge="1">
          <mxGeometry relative="1" as="geometry">
            <mxPoint x="52.853094932016965" y="134.75984990619136" as="targetPoint" />
          </mxGeometry>
        </mxCell>
        <mxCell id="euBuzAmvhNaSO7vLQI_B-10" value="&lt;span style=&quot;font-size: 15px&quot;&gt;用&lt;br&gt;&lt;br&gt;户&lt;br&gt;&lt;br&gt;管&lt;br&gt;&lt;br&gt;理&lt;br&gt;&lt;/span&gt;" style="rounded=0;whiteSpace=wrap;html=1;" parent="euBuzAmvhNaSO7vLQI_B-43" vertex="1">
          <mxGeometry x="36.79285103731686" y="190.65103189493436" width="17.88527161000693" height="127.92870544090057" as="geometry" />
        </mxCell>
        <mxCell id="euBuzAmvhNaSO7vLQI_B-33" style="edgeStyle=orthogonalEdgeStyle;rounded=0;orthogonalLoop=1;jettySize=auto;html=1;exitX=0.5;exitY=0;exitDx=0;exitDy=0;entryX=0.5;entryY=1;entryDx=0;entryDy=0;endArrow=none;endFill=0;" parent="euBuzAmvhNaSO7vLQI_B-43" source="euBuzAmvhNaSO7vLQI_B-11" target="euBuzAmvhNaSO7vLQI_B-2" edge="1">
          <mxGeometry relative="1" as="geometry" />
        </mxCell>
        <mxCell id="euBuzAmvhNaSO7vLQI_B-11" value="&lt;span style=&quot;font-size: 15px&quot;&gt;角&lt;br&gt;&lt;br&gt;色&lt;br&gt;&lt;br&gt;管&lt;br&gt;&lt;br&gt;理&lt;br&gt;&lt;/span&gt;" style="rounded=0;whiteSpace=wrap;html=1;" parent="euBuzAmvhNaSO7vLQI_B-43" vertex="1">
          <mxGeometry x="65.99329448222613" y="190.65103189493436" width="17.88527161000693" height="127.92870544090057" as="geometry" />
        </mxCell>
        <mxCell id="euBuzAmvhNaSO7vLQI_B-34" style="edgeStyle=orthogonalEdgeStyle;rounded=0;orthogonalLoop=1;jettySize=auto;html=1;exitX=0.5;exitY=0;exitDx=0;exitDy=0;entryX=0.5;entryY=1;entryDx=0;entryDy=0;endArrow=none;endFill=0;" parent="euBuzAmvhNaSO7vLQI_B-43" source="euBuzAmvhNaSO7vLQI_B-13" target="euBuzAmvhNaSO7vLQI_B-6" edge="1">
          <mxGeometry relative="1" as="geometry" />
        </mxCell>
        <mxCell id="euBuzAmvhNaSO7vLQI_B-13" value="&lt;span style=&quot;font-size: 15px&quot;&gt;&lt;br&gt;添&lt;br&gt;&lt;br&gt;加&lt;br&gt;&lt;br&gt;设&lt;br&gt;&lt;br&gt;备&lt;br&gt;&lt;br&gt;&lt;/span&gt;" style="rounded=0;whiteSpace=wrap;html=1;" parent="euBuzAmvhNaSO7vLQI_B-43" vertex="1">
          <mxGeometry x="100.66882107305592" y="190.65103189493436" width="17.88527161000693" height="127.92870544090057" as="geometry" />
        </mxCell>
        <mxCell id="euBuzAmvhNaSO7vLQI_B-35" style="edgeStyle=orthogonalEdgeStyle;rounded=0;orthogonalLoop=1;jettySize=auto;html=1;exitX=0.5;exitY=0;exitDx=0;exitDy=0;endArrow=none;endFill=0;" parent="euBuzAmvhNaSO7vLQI_B-43" source="euBuzAmvhNaSO7vLQI_B-14" edge="1">
          <mxGeometry relative="1" as="geometry">
            <mxPoint x="143.37446961123572" y="134.75984990619136" as="targetPoint" />
          </mxGeometry>
        </mxCell>
        <mxCell id="euBuzAmvhNaSO7vLQI_B-14" value="&lt;span style=&quot;font-size: 15px&quot;&gt;设&lt;br&gt;&lt;br&gt;备&lt;br&gt;&lt;br&gt;分&lt;br&gt;&lt;br&gt;组&lt;br&gt;&lt;/span&gt;" style="rounded=0;whiteSpace=wrap;html=1;" parent="euBuzAmvhNaSO7vLQI_B-43" vertex="1">
          <mxGeometry x="129.86926451796518" y="190.65103189493436" width="17.88527161000693" height="127.92870544090057" as="geometry" />
        </mxCell>
        <mxCell id="euBuzAmvhNaSO7vLQI_B-36" style="edgeStyle=orthogonalEdgeStyle;rounded=0;orthogonalLoop=1;jettySize=auto;html=1;exitX=0.5;exitY=0;exitDx=0;exitDy=0;endArrow=none;endFill=0;" parent="euBuzAmvhNaSO7vLQI_B-43" source="euBuzAmvhNaSO7vLQI_B-15" edge="1">
          <mxGeometry relative="1" as="geometry">
            <mxPoint x="143.7394751542971" y="134.75984990619136" as="targetPoint" />
          </mxGeometry>
        </mxCell>
        <mxCell id="euBuzAmvhNaSO7vLQI_B-15" value="&lt;span style=&quot;font-size: 15px&quot;&gt;删&lt;br&gt;&lt;br&gt;除&lt;br&gt;&lt;br&gt;设&lt;br&gt;&lt;br&gt;备&lt;br&gt;&lt;/span&gt;" style="rounded=0;whiteSpace=wrap;html=1;" parent="euBuzAmvhNaSO7vLQI_B-43" vertex="1">
          <mxGeometry x="159.06970796287445" y="190.65103189493436" width="17.88527161000693" height="127.92870544090057" as="geometry" />
        </mxCell>
        <mxCell id="euBuzAmvhNaSO7vLQI_B-37" style="edgeStyle=orthogonalEdgeStyle;rounded=0;orthogonalLoop=1;jettySize=auto;html=1;exitX=0.5;exitY=0;exitDx=0;exitDy=0;endArrow=none;endFill=0;" parent="euBuzAmvhNaSO7vLQI_B-43" source="euBuzAmvhNaSO7vLQI_B-16" target="euBuzAmvhNaSO7vLQI_B-7" edge="1">
          <mxGeometry relative="1" as="geometry" />
        </mxCell>
        <mxCell id="euBuzAmvhNaSO7vLQI_B-16" value="&lt;span style=&quot;font-size: 15px&quot;&gt;保&lt;br&gt;&lt;br&gt;护&lt;br&gt;&lt;br&gt;目&lt;br&gt;&lt;br&gt;录&lt;br&gt;&lt;/span&gt;" style="rounded=0;whiteSpace=wrap;html=1;" parent="euBuzAmvhNaSO7vLQI_B-43" vertex="1">
          <mxGeometry x="191.1901957522747" y="190.65103189493436" width="17.88527161000693" height="127.92870544090057" as="geometry" />
        </mxCell>
        <mxCell id="euBuzAmvhNaSO7vLQI_B-38" style="edgeStyle=orthogonalEdgeStyle;rounded=0;orthogonalLoop=1;jettySize=auto;html=1;exitX=0.5;exitY=0;exitDx=0;exitDy=0;entryX=0.5;entryY=1;entryDx=0;entryDy=0;endArrow=none;endFill=0;" parent="euBuzAmvhNaSO7vLQI_B-43" source="euBuzAmvhNaSO7vLQI_B-17" target="euBuzAmvhNaSO7vLQI_B-7" edge="1">
          <mxGeometry relative="1" as="geometry" />
        </mxCell>
        <mxCell id="euBuzAmvhNaSO7vLQI_B-17" value="&lt;span style=&quot;font-size: 15px&quot;&gt;保&lt;br&gt;&lt;br&gt;护&lt;br&gt;&lt;br&gt;证&lt;br&gt;&lt;br&gt;书&lt;br&gt;&lt;/span&gt;" style="rounded=0;whiteSpace=wrap;html=1;" parent="euBuzAmvhNaSO7vLQI_B-43" vertex="1">
          <mxGeometry x="214.9956447402453" y="191.00103189493436" width="17.88527161000693" height="127.92870544090057" as="geometry" />
        </mxCell>
        <mxCell id="euBuzAmvhNaSO7vLQI_B-39" style="edgeStyle=orthogonalEdgeStyle;rounded=0;orthogonalLoop=1;jettySize=auto;html=1;exitX=0.5;exitY=0;exitDx=0;exitDy=0;entryX=0.5;entryY=1;entryDx=0;entryDy=0;endArrow=none;endFill=0;" parent="euBuzAmvhNaSO7vLQI_B-43" source="euBuzAmvhNaSO7vLQI_B-18" target="euBuzAmvhNaSO7vLQI_B-7" edge="1">
          <mxGeometry relative="1" as="geometry" />
        </mxCell>
        <mxCell id="euBuzAmvhNaSO7vLQI_B-18" value="&lt;span style=&quot;font-size: 15px&quot;&gt;后&lt;br&gt;缀&lt;br&gt;名&lt;br&gt;文&lt;br&gt;件&lt;br&gt;保&lt;br&gt;护&lt;br&gt;&lt;/span&gt;" style="rounded=0;whiteSpace=wrap;html=1;" parent="euBuzAmvhNaSO7vLQI_B-43" vertex="1">
          <mxGeometry x="238.99608818515455" y="190.65103189493436" width="17.88527161000693" height="127.92870544090057" as="geometry" />
        </mxCell>
        <mxCell id="euBuzAmvhNaSO7vLQI_B-40" style="edgeStyle=orthogonalEdgeStyle;rounded=0;orthogonalLoop=1;jettySize=auto;html=1;exitX=0.5;exitY=0;exitDx=0;exitDy=0;entryX=0.5;entryY=1;entryDx=0;entryDy=0;endArrow=none;endFill=0;" parent="euBuzAmvhNaSO7vLQI_B-43" source="euBuzAmvhNaSO7vLQI_B-19" target="euBuzAmvhNaSO7vLQI_B-7" edge="1">
          <mxGeometry relative="1" as="geometry" />
        </mxCell>
        <mxCell id="euBuzAmvhNaSO7vLQI_B-19" value="&lt;span style=&quot;font-size: 15px&quot;&gt;程&lt;br&gt;&lt;br&gt;序&lt;br&gt;&lt;br&gt;授&lt;br&gt;&lt;br&gt;权&lt;br&gt;&lt;/span&gt;" style="rounded=0;whiteSpace=wrap;html=1;" parent="euBuzAmvhNaSO7vLQI_B-43" vertex="1">
          <mxGeometry x="262.9965205439411" y="191.00103189493436" width="17.88527161000693" height="127.92870544090057" as="geometry" />
        </mxCell>
        <mxCell id="euBuzAmvhNaSO7vLQI_B-41" style="edgeStyle=orthogonalEdgeStyle;rounded=0;orthogonalLoop=1;jettySize=auto;html=1;exitX=0.5;exitY=0;exitDx=0;exitDy=0;endArrow=none;endFill=0;" parent="euBuzAmvhNaSO7vLQI_B-43" source="euBuzAmvhNaSO7vLQI_B-20" edge="1">
          <mxGeometry relative="1" as="geometry">
            <mxPoint x="347.0475626394779" y="136.00187617260787" as="targetPoint" />
          </mxGeometry>
        </mxCell>
        <mxCell id="euBuzAmvhNaSO7vLQI_B-20" value="&lt;span style=&quot;font-size: 15px&quot;&gt;单&lt;br&gt;机&lt;br&gt;安&lt;br&gt;全&lt;br&gt;分&lt;br&gt;析&lt;br&gt;&lt;/span&gt;" style="rounded=0;whiteSpace=wrap;html=1;" parent="euBuzAmvhNaSO7vLQI_B-43" vertex="1">
          <mxGeometry x="320.0371524529368" y="190.65103189493436" width="17.88527161000693" height="127.92870544090057" as="geometry" />
        </mxCell>
        <mxCell id="euBuzAmvhNaSO7vLQI_B-42" style="edgeStyle=orthogonalEdgeStyle;rounded=0;orthogonalLoop=1;jettySize=auto;html=1;exitX=0.5;exitY=0;exitDx=0;exitDy=0;endArrow=none;endFill=0;" parent="euBuzAmvhNaSO7vLQI_B-43" source="euBuzAmvhNaSO7vLQI_B-21" edge="1">
          <mxGeometry relative="1" as="geometry">
            <mxPoint x="346.68255709641653" y="136.62288930581616" as="targetPoint" />
          </mxGeometry>
        </mxCell>
        <mxCell id="euBuzAmvhNaSO7vLQI_B-21" value="&lt;span style=&quot;font-size: 15px&quot;&gt;设&lt;br&gt;&lt;br&gt;备&lt;br&gt;&lt;br&gt;概&lt;br&gt;&lt;br&gt;况&lt;br&gt;&lt;/span&gt;" style="rounded=0;whiteSpace=wrap;html=1;" parent="euBuzAmvhNaSO7vLQI_B-43" vertex="1">
          <mxGeometry x="354.3476735007052" y="190.65103189493436" width="17.88527161000693" height="127.92870544090057" as="geometry" />
        </mxCell>
        <mxCell id="tPV664_OcNk1uNrXSqDA-1" value="&lt;span style=&quot;font-size: 15px&quot;&gt;心&lt;br&gt;&lt;br&gt;跳&lt;br&gt;&lt;br&gt;检&lt;br&gt;&lt;br&gt;测&lt;br&gt;&lt;/span&gt;" style="rounded=0;whiteSpace=wrap;html=1;" vertex="1" parent="euBuzAmvhNaSO7vLQI_B-43">
          <mxGeometry x="285.9965205439411" y="191.00103189493436" width="17.88527161000693" height="127.92870544090057" as="geometry" />
        </mxCell>
      </root>
    </mxGraphModel>
  </diagram>
</mxfile>
